<svg width="32" height="32" viewBox="0 0 32 32" fill="none" xmlns="http://www.w3.org/2000/svg">
<g clip-path="url(#clip0_449_225)">
<path d="M31.7611 15.3747C31.4755 15.0561 24.6052 7.5625 16 7.5625C7.39491 7.5625 0.524656 15.0561 0.238969 15.3747C-0.0796562 15.7308 -0.0796562 16.2692 0.238969 16.6253C0.524656 16.9439 7.39503 24.4375 16 24.4375C24.605 24.4375 31.4754 16.9439 31.7611 16.6253C32.0797 16.2692 32.0797 15.7308 31.7611 15.3747ZM16 22.5625C12.3818 22.5625 9.43753 19.6182 9.43753 16C9.43753 12.3818 12.3818 9.4375 16 9.4375C19.6182 9.4375 22.5625 12.3818 22.5625 16C22.5625 19.6182 19.6182 22.5625 16 22.5625Z" fill="#AFAFAF"/>
<path d="M16.9375 14.125C16.9375 13.1819 17.4057 12.3522 18.1179 11.8419C17.4788 11.5147 16.7659 11.3125 16 11.3125C13.4154 11.3125 11.3125 13.4154 11.3125 16C11.3125 18.5846 13.4154 20.6875 16 20.6875C18.314 20.6875 20.2292 18.9979 20.6076 16.7901C18.7197 17.3979 16.9375 15.9701 16.9375 14.125Z" fill="#AFAFAF"/>
</g>
<defs>
<clipPath id="clip0_449_225">
<rect width="32" height="32" fill="white"/>
</clipPath>
</defs>
</svg>
