<svg width="24" height="24" viewBox="0 0 24 24" fill="none" xmlns="http://www.w3.org/2000/svg">
<path d="M18.2736 9.34336H12.4131C11.9555 9.34336 11.5759 8.96383 11.5759 8.50615C11.5759 8.04848 11.9555 7.66895 12.4131 7.66895H18.2736C18.7313 7.66895 19.1108 8.04848 19.1108 8.50615C19.1108 8.96383 18.7424 9.34336 18.2736 9.34336Z" fill="#36353D"/>
<path d="M6.552 10.1916C6.33991 10.1916 6.12781 10.1135 5.96037 9.94601L5.12316 9.10877C4.79944 8.78505 4.79944 8.24923 5.12316 7.92551C5.44688 7.60179 5.9827 7.60179 6.30642 7.92551L6.552 8.17109L8.472 6.25109C8.79572 5.92737 9.33153 5.92737 9.65526 6.25109C9.97901 6.57481 9.97901 7.11063 9.65526 7.43435L7.14363 9.94601C6.98735 10.1023 6.77525 10.1916 6.552 10.1916Z" fill="#36353D"/>
<path d="M18.2736 17.1573H12.4131C11.9555 17.1573 11.5759 16.7778 11.5759 16.3201C11.5759 15.8624 11.9555 15.4829 12.4131 15.4829H18.2736C18.7313 15.4829 19.1108 15.8624 19.1108 16.3201C19.1108 16.7778 18.7424 17.1573 18.2736 17.1573Z" fill="#36353D"/>
<path d="M6.552 18.0055C6.33991 18.0055 6.12781 17.9274 5.96037 17.7599L5.12316 16.9227C4.79944 16.599 4.79944 16.0632 5.12316 15.7395C5.44688 15.4158 5.9827 15.4158 6.30642 15.7395L6.552 15.9851L8.472 14.0651C8.79572 13.7413 9.33153 13.7413 9.65526 14.0651C9.97901 14.3888 9.97901 14.9246 9.65526 15.2483L7.14363 17.7599C6.98735 17.9162 6.77525 18.0055 6.552 18.0055Z" fill="#36353D"/>
<path d="M15.3488 24H8.65116C2.58977 24 0 21.4102 0 15.3488V8.65116C0 2.58977 2.58977 0 8.65116 0H15.3488C21.4102 0 24 2.58977 24 8.65116V15.3488C24 21.4102 21.4102 24 15.3488 24ZM8.65116 1.67442C3.50512 1.67442 1.67442 3.50512 1.67442 8.65116V15.3488C1.67442 20.4949 3.50512 22.3256 8.65116 22.3256H15.3488C20.4949 22.3256 22.3256 20.4949 22.3256 15.3488V8.65116C22.3256 3.50512 20.4949 1.67442 15.3488 1.67442H8.65116Z" fill="#36353D"/>
</svg>
