<svg width="25" height="24" viewBox="0 0 25 24" fill="none" xmlns="http://www.w3.org/2000/svg">
<path d="M12.6001 0C5.96714 0 0.600098 5.36752 0.600098 12C0.600098 18.633 5.96761 24 12.6001 24C19.2331 24 24.6001 18.6325 24.6001 12C24.6001 5.36705 19.2325 0 12.6001 0ZM12.6001 22.125C7.00355 22.125 2.4751 17.5962 2.4751 12C2.4751 6.40345 7.00393 1.875 12.6001 1.875C18.1966 1.875 22.7251 6.40383 22.7251 12C22.7251 17.5965 18.1962 22.125 12.6001 22.125Z" fill="#36353D"/>
<path d="M12.6001 10.0467C12.0823 10.0467 11.6626 10.4664 11.6626 10.9842V17.0214C11.6626 17.5392 12.0823 17.9589 12.6001 17.9589C13.1179 17.9589 13.5376 17.5391 13.5376 17.0213V10.9842C13.5376 10.4664 13.1179 10.0467 12.6001 10.0467Z" fill="#36353D"/>
<path d="M12.6001 8.89874C13.2991 8.89874 13.8657 8.3321 13.8657 7.63312C13.8657 6.93413 13.2991 6.36749 12.6001 6.36749C11.9011 6.36749 11.3345 6.93413 11.3345 7.63312C11.3345 8.3321 11.9011 8.89874 12.6001 8.89874Z" fill="#36353D"/>
</svg>
