<svg width="23" height="26" viewBox="0 0 23 26" fill="none" xmlns="http://www.w3.org/2000/svg">
<path d="M22 3.4H19V1.6C19 1.44087 18.9368 1.28826 18.8243 1.17574C18.7118 1.06321 18.5592 1 18.4 1H5.20003C5.0409 1 4.88829 1.06321 4.77577 1.17574C4.66324 1.28826 4.60003 1.44087 4.60003 1.6V3.4H1.60003C1.4409 3.4 1.28829 3.46321 1.17577 3.57574C1.06324 3.68826 1.00003 3.84087 1.00003 4V6.4C0.996024 7.4533 1.38794 8.46966 2.09807 9.24759C2.80821 10.0255 3.78473 10.5082 4.83403 10.6C5.20262 12.0499 6.0137 13.349 7.15457 14.3167C8.29543 15.2845 9.70942 15.8728 11.2 16V20.2H10C9.38353 20.1806 8.78453 20.4066 8.33455 20.8285C7.88457 21.2503 7.62039 21.8335 7.60003 22.45V23.8H5.20003V25H18.4V23.8H16V22.45C15.9797 21.8335 15.7155 21.2503 15.2655 20.8285C14.8155 20.4066 14.2165 20.1806 13.6 20.2H12.4V16C13.8906 15.8728 15.3046 15.2845 16.4455 14.3167C17.5864 13.349 18.3974 12.0499 18.766 10.6C19.8153 10.5082 20.7919 10.0255 21.502 9.24759C22.2121 8.46966 22.604 7.4533 22.6 6.4V4C22.6 3.84087 22.5368 3.68826 22.4243 3.57574C22.3118 3.46321 22.1592 3.4 22 3.4ZM14.8 22.45V23.8H8.80003V22.45C8.82159 22.1523 8.95967 21.875 9.18433 21.6785C9.40898 21.4819 9.70207 21.3818 10 21.4H13.6C13.898 21.3818 14.1911 21.4819 14.4157 21.6785C14.6404 21.875 14.7785 22.1523 14.8 22.45ZM2.20003 6.4V4.6H4.60003V8.986C4.5939 9.10392 4.5939 9.22208 4.60003 9.34C3.92241 9.20168 3.31339 8.83349 2.87605 8.29774C2.4387 7.76199 2.19989 7.09159 2.20003 6.4ZM11.8 14.8C10.2087 14.8 8.68261 14.1679 7.55739 13.0426C6.43217 11.9174 5.80003 10.3913 5.80003 8.8V2.2H17.8V8.8C17.8 9.58793 17.6448 10.3681 17.3433 11.0961C17.0418 11.8241 16.5998 12.4855 16.0427 13.0426C15.4855 13.5998 14.8241 14.0417 14.0961 14.3433C13.3682 14.6448 12.588 14.8 11.8 14.8ZM21.4 6.4C21.4002 7.09159 21.1614 7.76199 20.724 8.29774C20.2867 8.83349 19.6777 9.20168 19 9.34C19.0062 9.22208 19.0062 9.10392 19 8.986V4.6H21.4V6.4Z" fill="#36353D" stroke="#36353D" stroke-width="0.4"/>
</svg>
