<svg width="24" height="24" viewBox="0 0 24 24" fill="none" xmlns="http://www.w3.org/2000/svg">
<g clip-path="url(#clip0_450_8)">
<path d="M23.5279 11.1614L19.6737 9.23442L23.5279 7.30722C24.2173 6.96262 24.218 5.97531 23.5279 5.63015L12.4654 0.0988774C12.2013 -0.0329591 11.8908 -0.0329591 11.6267 0.0988774L0.564196 5.63015C-0.125199 5.97494 -0.125932 6.96225 0.564196 7.30722L4.4184 9.23442L0.564196 11.1614C-0.125199 11.5062 -0.125932 12.4933 0.564196 12.8385L4.4184 14.7657L0.564196 16.6927C-0.125199 17.0375 -0.125932 18.0246 0.564196 18.3698L11.6267 23.901C11.8902 24.0327 12.2008 24.0332 12.4654 23.901L23.5279 18.3698C24.2173 18.025 24.218 17.0379 23.5279 16.6927L19.6737 14.7657L23.5279 12.8385C24.2173 12.4939 24.218 11.5066 23.5279 11.1614ZM12.0461 1.9856L21.0122 6.46878L12.0461 10.9518L3.07989 6.46878L12.0461 1.9856ZM21.0122 17.5313L12.0461 22.0143L3.07989 17.5313L6.51478 15.8138L11.6267 18.3698C11.8904 18.5014 12.2008 18.502 12.4654 18.3698L17.5773 15.8138L21.0122 17.5313ZM12.0461 16.483L3.07989 12.0001L6.51478 10.2825L11.6267 12.8385C11.8904 12.9701 12.2008 12.9707 12.4654 12.8385L17.5773 10.2825L21.0122 12.0001L12.0461 16.483Z" fill="#36353D"/>
</g>
<defs>
<clipPath id="clip0_450_8">
<rect width="24" height="24" fill="white"/>
</clipPath>
</defs>
</svg>
