<svg width="24" height="24" viewBox="0 0 24 24" fill="none" xmlns="http://www.w3.org/2000/svg">
<g clip-path="url(#clip0_450_19)">
<path d="M23.0597 12.3176H18.3813C18.314 11.7469 18.1824 11.1957 17.9934 10.6715H23.1322C23.5191 10.6715 23.8339 10.3602 23.8381 9.97341C23.8993 4.40508 19.4044 0 13.983 0C13.5932 0 13.2771 0.316047 13.2771 0.705882V6.09515C12.7636 5.92748 12.2259 5.81407 11.6706 5.76179V3.10024C11.6706 2.7104 11.3545 2.39435 10.9647 2.39435C4.99399 2.39435 0.161377 7.22588 0.161377 13.1972C0.161377 19.1676 4.99342 24 10.9647 24C13.3548 24 15.6198 23.2351 17.5149 21.7879C17.8267 21.5498 17.8839 21.1037 17.6447 20.7947L16.0172 18.6922C16.5007 18.2472 16.9255 17.7396 17.2786 17.1821L19.3105 19.8071C19.548 20.1139 19.9886 20.1716 20.2971 19.936C22.4696 18.2768 23.7338 15.7603 23.7656 13.0317C23.7701 12.6387 23.4525 12.3176 23.0597 12.3176ZM14.6889 1.44061C18.7556 1.77459 22.1121 5.03666 22.406 9.25972H17.3083C16.6576 8.21492 15.7564 7.3416 14.6889 6.72489V1.44061ZM16.0773 21.0762C14.5568 22.0676 12.8034 22.5882 10.9647 22.5882C5.78618 22.5882 1.57314 18.3754 1.57314 13.1972C1.57314 8.25628 5.40862 4.19431 10.2588 3.83233V5.76169C6.47008 6.1184 3.4954 9.31666 3.4954 13.1971C3.4954 17.3155 6.84594 20.6661 10.9643 20.6661C12.4049 20.6661 13.7511 20.2557 14.8932 19.5464L16.0773 21.0762ZM10.9643 19.2543C7.62439 19.2543 4.90717 16.5371 4.90717 13.1971C4.90717 9.85713 7.62439 7.13991 10.9643 7.13991C14.3043 7.13991 17.0215 9.85713 17.0215 13.1971C17.0215 16.5371 14.3043 19.2543 10.9643 19.2543ZM19.9778 18.3627L17.9747 15.7749C18.2126 15.1299 18.3636 14.4433 18.4141 13.7294H22.3117C22.121 15.5111 21.2977 17.1455 19.9778 18.3627Z" fill="#36353D"/>
<path d="M8.9001 16.9999V9.85986H11.1801C12.1001 9.85986 12.7701 10.0465 13.1901 10.4199C13.6168 10.7932 13.8301 11.3065 13.8301 11.9599C13.8301 12.3465 13.7434 12.7099 13.5701 13.0499C13.3968 13.3899 13.1068 13.6632 12.7001 13.8699C12.3001 14.0765 11.7534 14.1799 11.0601 14.1799H10.4101V16.9999H8.9001ZM8.1001 15.9299V14.9599H11.9501V15.9299H8.1001ZM8.1001 14.1799V12.9399H11.0301V14.1799H8.1001ZM10.9101 12.9399C11.1968 12.9399 11.4434 12.9099 11.6501 12.8499C11.8568 12.7832 12.0168 12.6799 12.1301 12.5399C12.2434 12.3999 12.3001 12.2232 12.3001 12.0099C12.3001 11.7032 12.2034 11.4765 12.0101 11.3299C11.8168 11.1765 11.5134 11.0999 11.1001 11.0999H10.4101V12.9399H10.9101Z" fill="#36353D"/>
</g>
<defs>
<clipPath id="clip0_450_19">
<rect width="24" height="24" fill="white"/>
</clipPath>
</defs>
</svg>
